<mxfile host="app.diagrams.net" agent="Mozilla/5.0 (Windows NT 10.0; Win64; x64) AppleWebKit/537.36 (KHTML, like Gecko) Chrome/138.0.0.0 Safari/537.36" version="28.0.6">
  <diagram name="NASA_LDPC_Communication" id="0">
    <mxGraphModel dx="719" dy="388" grid="1" gridSize="10" guides="1" tooltips="1" connect="1" arrows="1" fold="1" page="1" pageScale="1" pageWidth="895" pageHeight="827" math="0" shadow="0">
      <root>
        <mxCell id="0" />
        <mxCell id="1" parent="0" />
        <mxCell id="iRgurN6DhdkURvMUqEh9-57" value="" style="edgeStyle=orthogonalEdgeStyle;rounded=0;orthogonalLoop=1;jettySize=auto;html=1;entryX=0.398;entryY=0.01;entryDx=0;entryDy=0;entryPerimeter=0;" parent="1" source="2" target="3" edge="1">
          <mxGeometry relative="1" as="geometry" />
        </mxCell>
        <mxCell id="2" value="&lt;font style=&quot;font-size: 16px;&quot;&gt;Start (Client)&lt;/font&gt;" style="ellipse;whiteSpace=wrap;html=1;fillColor=light-dark(#e6e5e5, #1f2f1e);strokeColor=default;" parent="1" vertex="1">
          <mxGeometry x="61" y="30" width="120" height="60" as="geometry" />
        </mxCell>
        <mxCell id="iRgurN6DhdkURvMUqEh9-58" value="" style="edgeStyle=orthogonalEdgeStyle;rounded=0;orthogonalLoop=1;jettySize=auto;html=1;entryX=0.48;entryY=0.01;entryDx=0;entryDy=0;entryPerimeter=0;" parent="1" source="3" target="4" edge="1">
          <mxGeometry relative="1" as="geometry" />
        </mxCell>
        <mxCell id="3" value="&lt;font style=&quot;font-size: 16px;&quot;&gt;User enters full message&lt;/font&gt;" style="rounded=1;whiteSpace=wrap;html=1;" parent="1" vertex="1">
          <mxGeometry x="41" y="120" width="200" height="60" as="geometry" />
        </mxCell>
        <mxCell id="iRgurN6DhdkURvMUqEh9-18" value="" style="edgeStyle=orthogonalEdgeStyle;rounded=0;orthogonalLoop=1;jettySize=auto;html=1;entryX=0;entryY=0.5;entryDx=0;entryDy=0;" parent="1" source="4" target="iRgurN6DhdkURvMUqEh9-16" edge="1">
          <mxGeometry relative="1" as="geometry">
            <Array as="points">
              <mxPoint x="141" y="408" />
            </Array>
          </mxGeometry>
        </mxCell>
        <mxCell id="4" value="&lt;font style=&quot;font-size: 16px;&quot;&gt;Split message into 862-char segments and put them into a queue&lt;/font&gt;&lt;div&gt;&lt;font style=&quot;&quot;&gt;&lt;span style=&quot;font-size: 16px;&quot;&gt;Set, command = start_com&lt;/span&gt;&lt;/font&gt;&lt;/div&gt;" style="rounded=1;whiteSpace=wrap;html=1;" parent="1" vertex="1">
          <mxGeometry x="31" y="214" width="230" height="90" as="geometry" />
        </mxCell>
        <mxCell id="iRgurN6DhdkURvMUqEh9-30" value="" style="edgeStyle=orthogonalEdgeStyle;rounded=0;orthogonalLoop=1;jettySize=auto;html=1;entryX=0.479;entryY=0.004;entryDx=0;entryDy=0;entryPerimeter=0;" parent="1" source="5" target="iRgurN6DhdkURvMUqEh9-21" edge="1">
          <mxGeometry relative="1" as="geometry" />
        </mxCell>
        <mxCell id="5" value="&lt;font style=&quot;font-size: 16px;&quot;&gt;Pick the next segment&lt;/font&gt;" style="rounded=1;whiteSpace=wrap;html=1;" parent="1" vertex="1">
          <mxGeometry x="56" y="525" width="170" height="60" as="geometry" />
        </mxCell>
        <mxCell id="iRgurN6DhdkURvMUqEh9-28" value="" style="edgeStyle=orthogonalEdgeStyle;rounded=0;orthogonalLoop=1;jettySize=auto;html=1;" parent="1" source="6" target="8" edge="1">
          <mxGeometry relative="1" as="geometry" />
        </mxCell>
        <mxCell id="6" value="&lt;font style=&quot;font-size: 16px;&quot;&gt;Encode with G, encrypt using S &amp;amp; P and Add error&lt;/font&gt;" style="rounded=1;whiteSpace=wrap;html=1;" parent="1" vertex="1">
          <mxGeometry x="31" y="720" width="270" height="60" as="geometry" />
        </mxCell>
        <mxCell id="8" value="&lt;font style=&quot;font-size: 16px;&quot;&gt;Send to Server&lt;/font&gt;" style="rounded=1;whiteSpace=wrap;html=1;" parent="1" vertex="1">
          <mxGeometry x="372" y="720" width="180" height="60" as="geometry" />
        </mxCell>
        <mxCell id="iRgurN6DhdkURvMUqEh9-54" value="" style="edgeStyle=orthogonalEdgeStyle;rounded=0;orthogonalLoop=1;jettySize=auto;html=1;exitX=0.5;exitY=1;exitDx=0;exitDy=0;entryX=0;entryY=0.5;entryDx=0;entryDy=0;" parent="1" source="10" target="iRgurN6DhdkURvMUqEh9-38" edge="1">
          <mxGeometry relative="1" as="geometry">
            <mxPoint x="744" y="150" as="targetPoint" />
            <Array as="points">
              <mxPoint x="874" y="770" />
              <mxPoint x="634" y="770" />
              <mxPoint x="634" y="150" />
            </Array>
          </mxGeometry>
        </mxCell>
        <mxCell id="10" value="&lt;font style=&quot;font-size: 16px;&quot;&gt;Send: ACK = Segment No+1&lt;/font&gt;" style="rounded=1;whiteSpace=wrap;html=1;" parent="1" vertex="1">
          <mxGeometry x="814" y="585" width="120" height="60" as="geometry" />
        </mxCell>
        <mxCell id="iRgurN6DhdkURvMUqEh9-45" value="" style="edgeStyle=orthogonalEdgeStyle;rounded=0;orthogonalLoop=1;jettySize=auto;html=1;" parent="1" source="iRgurN6DhdkURvMUqEh9-11" target="iRgurN6DhdkURvMUqEh9-39" edge="1">
          <mxGeometry relative="1" as="geometry" />
        </mxCell>
        <mxCell id="iRgurN6DhdkURvMUqEh9-11" value="&lt;font style=&quot;font-size: 16px;&quot;&gt;Recompute SHA-256 hash of received raw message&lt;/font&gt;" style="rounded=1;whiteSpace=wrap;html=1;" parent="1" vertex="1">
          <mxGeometry x="701" y="320" width="180" height="60" as="geometry" />
        </mxCell>
        <mxCell id="iRgurN6DhdkURvMUqEh9-42" value="" style="edgeStyle=orthogonalEdgeStyle;rounded=0;orthogonalLoop=1;jettySize=auto;html=1;" parent="1" source="iRgurN6DhdkURvMUqEh9-12" target="iRgurN6DhdkURvMUqEh9-38" edge="1">
          <mxGeometry relative="1" as="geometry" />
        </mxCell>
        <mxCell id="iRgurN6DhdkURvMUqEh9-12" value="&lt;font style=&quot;font-size: 16px;&quot;&gt;Start (Server)&lt;/font&gt;" style="ellipse;whiteSpace=wrap;html=1;fillColor=light-dark(#e6e5e5, #1f2f1e);" parent="1" vertex="1">
          <mxGeometry x="731" y="30" width="120" height="60" as="geometry" />
        </mxCell>
        <mxCell id="iRgurN6DhdkURvMUqEh9-44" value="" style="edgeStyle=orthogonalEdgeStyle;rounded=0;orthogonalLoop=1;jettySize=auto;html=1;" parent="1" source="iRgurN6DhdkURvMUqEh9-13" edge="1">
          <mxGeometry relative="1" as="geometry">
            <mxPoint x="795" y="320" as="targetPoint" />
          </mxGeometry>
        </mxCell>
        <mxCell id="iRgurN6DhdkURvMUqEh9-13" value="&lt;font style=&quot;font-size: 16px;&quot;&gt;Capture client data then Decode and Decrypt.&lt;br&gt;If,&amp;nbsp;&lt;/font&gt;&lt;span style=&quot;font-size: 16px;&quot;&gt;command = start_com; reset accumulated message&lt;/span&gt;" style="rounded=1;whiteSpace=wrap;html=1;" parent="1" vertex="1">
          <mxGeometry x="670" y="200" width="250" height="90" as="geometry" />
        </mxCell>
        <mxCell id="iRgurN6DhdkURvMUqEh9-20" value="" style="edgeStyle=orthogonalEdgeStyle;rounded=0;orthogonalLoop=1;jettySize=auto;html=1;exitX=0.5;exitY=1;exitDx=0;exitDy=0;" parent="1" source="iRgurN6DhdkURvMUqEh9-16" target="5" edge="1">
          <mxGeometry relative="1" as="geometry">
            <Array as="points">
              <mxPoint x="266" y="500" />
              <mxPoint x="141" y="500" />
            </Array>
          </mxGeometry>
        </mxCell>
        <mxCell id="iRgurN6DhdkURvMUqEh9-36" value="" style="edgeStyle=orthogonalEdgeStyle;rounded=0;orthogonalLoop=1;jettySize=auto;html=1;exitX=0.5;exitY=0;exitDx=0;exitDy=0;entryX=0;entryY=0.5;entryDx=0;entryDy=0;" parent="1" source="iRgurN6DhdkURvMUqEh9-16" target="iRgurN6DhdkURvMUqEh9-23" edge="1">
          <mxGeometry relative="1" as="geometry">
            <mxPoint x="360" y="320" as="targetPoint" />
            <Array as="points">
              <mxPoint x="266" y="320" />
            </Array>
          </mxGeometry>
        </mxCell>
        <mxCell id="iRgurN6DhdkURvMUqEh9-16" value="&lt;font style=&quot;font-size: 16px;&quot;&gt;Is next segment available?&lt;/font&gt;" style="rhombus;whiteSpace=wrap;html=1;" parent="1" vertex="1">
          <mxGeometry x="191" y="333" width="150" height="150" as="geometry" />
        </mxCell>
        <mxCell id="iRgurN6DhdkURvMUqEh9-29" value="" style="edgeStyle=orthogonalEdgeStyle;rounded=0;orthogonalLoop=1;jettySize=auto;html=1;" parent="1" source="iRgurN6DhdkURvMUqEh9-21" edge="1">
          <mxGeometry relative="1" as="geometry">
            <mxPoint x="146" y="720" as="targetPoint" />
          </mxGeometry>
        </mxCell>
        <mxCell id="iRgurN6DhdkURvMUqEh9-21" value="&lt;font style=&quot;font-size: 16px;&quot;&gt;Convert to binary, append SHA-256 hash&lt;/font&gt;" style="rounded=1;whiteSpace=wrap;html=1;" parent="1" vertex="1">
          <mxGeometry x="31" y="630" width="230" height="60" as="geometry" />
        </mxCell>
        <mxCell id="iRgurN6DhdkURvMUqEh9-22" value="YES" style="text;html=1;align=center;verticalAlign=middle;whiteSpace=wrap;rounded=0;" parent="1" vertex="1">
          <mxGeometry x="177" y="485" width="30" height="13" as="geometry" />
        </mxCell>
        <mxCell id="iRgurN6DhdkURvMUqEh9-23" value="&lt;font style=&quot;font-size: 16px;&quot;&gt;Message is sent.&lt;/font&gt;" style="ellipse;whiteSpace=wrap;html=1;fillColor=light-dark(#ADADAD,#512D2B);" parent="1" vertex="1">
          <mxGeometry x="361" y="287" width="106" height="65" as="geometry" />
        </mxCell>
        <mxCell id="iRgurN6DhdkURvMUqEh9-24" value="&lt;font style=&quot;font-size: 16px;&quot;&gt;Is&lt;/font&gt;&lt;div&gt;&lt;font style=&quot;font-size: 16px;&quot;&gt;received ACK=Sent Segment No + 1 ?&lt;/font&gt;&lt;/div&gt;" style="rhombus;whiteSpace=wrap;html=1;" parent="1" vertex="1">
          <mxGeometry x="381" y="440" width="180" height="170" as="geometry" />
        </mxCell>
        <mxCell id="iRgurN6DhdkURvMUqEh9-25" value="" style="endArrow=classic;html=1;rounded=0;entryX=1;entryY=0.5;entryDx=0;entryDy=0;exitX=0.5;exitY=0;exitDx=0;exitDy=0;" parent="1" source="iRgurN6DhdkURvMUqEh9-24" target="iRgurN6DhdkURvMUqEh9-16" edge="1">
          <mxGeometry width="50" height="50" relative="1" as="geometry">
            <mxPoint x="488.5" y="515" as="sourcePoint" />
            <mxPoint x="488" y="350" as="targetPoint" />
            <Array as="points">
              <mxPoint x="471" y="408" />
            </Array>
          </mxGeometry>
        </mxCell>
        <mxCell id="iRgurN6DhdkURvMUqEh9-26" value="" style="endArrow=classic;html=1;rounded=0;exitX=0;exitY=0.5;exitDx=0;exitDy=0;entryX=-0.002;entryY=0.167;entryDx=0;entryDy=0;entryPerimeter=0;" parent="1" source="iRgurN6DhdkURvMUqEh9-24" target="8" edge="1">
          <mxGeometry width="50" height="50" relative="1" as="geometry">
            <mxPoint x="411" y="520" as="sourcePoint" />
            <mxPoint x="371" y="730" as="targetPoint" />
            <Array as="points">
              <mxPoint x="361" y="525" />
              <mxPoint x="361" y="730" />
            </Array>
          </mxGeometry>
        </mxCell>
        <mxCell id="iRgurN6DhdkURvMUqEh9-27" value="" style="endArrow=classic;html=1;rounded=0;entryX=0.5;entryY=1;entryDx=0;entryDy=0;exitX=0.5;exitY=0;exitDx=0;exitDy=0;" parent="1" source="iRgurN6DhdkURvMUqEh9-31" target="iRgurN6DhdkURvMUqEh9-24" edge="1">
          <mxGeometry width="50" height="50" relative="1" as="geometry">
            <mxPoint x="508" y="710" as="sourcePoint" />
            <mxPoint x="461" y="470" as="targetPoint" />
          </mxGeometry>
        </mxCell>
        <mxCell id="iRgurN6DhdkURvMUqEh9-32" value="" style="endArrow=classic;html=1;rounded=0;exitX=0.687;exitY=-0.006;exitDx=0;exitDy=0;exitPerimeter=0;entryX=0.5;entryY=1;entryDx=0;entryDy=0;" parent="1" target="iRgurN6DhdkURvMUqEh9-31" edge="1">
          <mxGeometry width="50" height="50" relative="1" as="geometry">
            <mxPoint x="471.6600000000001" y="719.6399999999999" as="sourcePoint" />
            <mxPoint x="471.9200000000001" y="660.5999999999999" as="targetPoint" />
          </mxGeometry>
        </mxCell>
        <mxCell id="iRgurN6DhdkURvMUqEh9-31" value="&lt;font style=&quot;font-size: 16px;&quot;&gt;Receive ACK&lt;/font&gt;" style="rounded=1;whiteSpace=wrap;html=1;" parent="1" vertex="1">
          <mxGeometry x="421.5" y="628" width="100" height="60" as="geometry" />
        </mxCell>
        <mxCell id="iRgurN6DhdkURvMUqEh9-34" value="YES" style="text;html=1;align=center;verticalAlign=middle;whiteSpace=wrap;rounded=0;" parent="1" vertex="1">
          <mxGeometry x="438.5" y="420" width="29.5" height="15" as="geometry" />
        </mxCell>
        <mxCell id="iRgurN6DhdkURvMUqEh9-37" value="NO" style="text;html=1;align=center;verticalAlign=middle;whiteSpace=wrap;rounded=0;" parent="1" vertex="1">
          <mxGeometry x="298" y="305" width="20" height="16" as="geometry" />
        </mxCell>
        <mxCell id="GYYnhZsXvXBiGkXWEXVa-17" value="" style="edgeStyle=orthogonalEdgeStyle;rounded=0;orthogonalLoop=1;jettySize=auto;html=1;" edge="1" parent="1" source="iRgurN6DhdkURvMUqEh9-38">
          <mxGeometry relative="1" as="geometry">
            <mxPoint x="790" y="200" as="targetPoint" />
          </mxGeometry>
        </mxCell>
        <mxCell id="iRgurN6DhdkURvMUqEh9-38" value="&lt;font style=&quot;font-size: 16px;&quot;&gt;Listen&lt;/font&gt;" style="rounded=1;whiteSpace=wrap;html=1;" parent="1" vertex="1">
          <mxGeometry x="751" y="120" width="80" height="60" as="geometry" />
        </mxCell>
        <mxCell id="iRgurN6DhdkURvMUqEh9-46" value="" style="edgeStyle=orthogonalEdgeStyle;rounded=0;orthogonalLoop=1;jettySize=auto;html=1;exitX=0;exitY=0.5;exitDx=0;exitDy=0;" parent="1" source="iRgurN6DhdkURvMUqEh9-39" target="iRgurN6DhdkURvMUqEh9-40" edge="1">
          <mxGeometry relative="1" as="geometry" />
        </mxCell>
        <mxCell id="iRgurN6DhdkURvMUqEh9-53" value="" style="edgeStyle=orthogonalEdgeStyle;rounded=0;orthogonalLoop=1;jettySize=auto;html=1;exitX=1;exitY=0.5;exitDx=0;exitDy=0;entryX=0.5;entryY=0;entryDx=0;entryDy=0;" parent="1" source="iRgurN6DhdkURvMUqEh9-39" edge="1">
          <mxGeometry relative="1" as="geometry">
            <mxPoint x="874" y="585" as="targetPoint" />
          </mxGeometry>
        </mxCell>
        <mxCell id="iRgurN6DhdkURvMUqEh9-39" value="&lt;font style=&quot;font-size: 16px;&quot;&gt;Is hash matched?&lt;/font&gt;" style="rhombus;whiteSpace=wrap;html=1;" parent="1" vertex="1">
          <mxGeometry x="734.75" y="426" width="112.5" height="104" as="geometry" />
        </mxCell>
        <mxCell id="GYYnhZsXvXBiGkXWEXVa-16" value="" style="edgeStyle=orthogonalEdgeStyle;rounded=0;orthogonalLoop=1;jettySize=auto;html=1;" edge="1" parent="1" source="iRgurN6DhdkURvMUqEh9-40" target="GYYnhZsXvXBiGkXWEXVa-14">
          <mxGeometry relative="1" as="geometry" />
        </mxCell>
        <mxCell id="iRgurN6DhdkURvMUqEh9-40" value="&lt;font style=&quot;font-size: 16px;&quot;&gt;Send: ACK = Segment No&lt;/font&gt;" style="rounded=1;whiteSpace=wrap;html=1;" parent="1" vertex="1">
          <mxGeometry x="654" y="585" width="120" height="60" as="geometry" />
        </mxCell>
        <mxCell id="iRgurN6DhdkURvMUqEh9-59" value="YES" style="text;html=1;align=center;verticalAlign=middle;whiteSpace=wrap;rounded=0;" parent="1" vertex="1">
          <mxGeometry x="873" y="530" width="34" height="30" as="geometry" />
        </mxCell>
        <mxCell id="iRgurN6DhdkURvMUqEh9-60" value="NO" style="text;html=1;align=center;verticalAlign=middle;whiteSpace=wrap;rounded=0;" parent="1" vertex="1">
          <mxGeometry x="685.75" y="530" width="31.25" height="30" as="geometry" />
        </mxCell>
        <mxCell id="GYYnhZsXvXBiGkXWEXVa-10" value="NO" style="text;html=1;align=center;verticalAlign=middle;whiteSpace=wrap;rounded=0;" vertex="1" parent="1">
          <mxGeometry x="329.75" y="600" width="31.25" height="30" as="geometry" />
        </mxCell>
        <mxCell id="GYYnhZsXvXBiGkXWEXVa-11" value="&lt;font style=&quot;font-size: 16px;&quot;&gt;Sender / Client&amp;nbsp; &amp;nbsp; &amp;nbsp;Flowchart&lt;/font&gt;" style="swimlane;whiteSpace=wrap;html=1;" vertex="1" parent="1">
          <mxGeometry x="21" width="570" height="790" as="geometry" />
        </mxCell>
        <mxCell id="GYYnhZsXvXBiGkXWEXVa-12" value="&lt;font style=&quot;font-size: 16px;&quot;&gt;Receiver / Server&amp;nbsp; &amp;nbsp; &amp;nbsp;Flowchart&lt;/font&gt;" style="swimlane;whiteSpace=wrap;html=1;" vertex="1" parent="1">
          <mxGeometry x="620" width="330" height="790" as="geometry">
            <mxRectangle x="620" width="130" height="30" as="alternateBounds" />
          </mxGeometry>
        </mxCell>
        <mxCell id="iRgurN6DhdkURvMUqEh9-51" value="" style="edgeStyle=orthogonalEdgeStyle;rounded=0;orthogonalLoop=1;jettySize=auto;html=1;exitX=0.5;exitY=1;exitDx=0;exitDy=0;entryX=0;entryY=0.5;entryDx=0;entryDy=0;" parent="GYYnhZsXvXBiGkXWEXVa-12" source="GYYnhZsXvXBiGkXWEXVa-14" edge="1">
          <mxGeometry relative="1" as="geometry">
            <mxPoint x="132" y="150" as="targetPoint" />
            <Array as="points">
              <mxPoint x="94" y="770" />
              <mxPoint x="15" y="770" />
              <mxPoint x="15" y="150" />
            </Array>
            <mxPoint x="95" y="645" as="sourcePoint" />
          </mxGeometry>
        </mxCell>
        <mxCell id="GYYnhZsXvXBiGkXWEXVa-14" value="&lt;font style=&quot;font-size: 16px;&quot;&gt;Accumulate Received Raw Message&lt;/font&gt;" style="rounded=1;whiteSpace=wrap;html=1;" vertex="1" parent="GYYnhZsXvXBiGkXWEXVa-12">
          <mxGeometry x="34" y="674" width="120" height="60" as="geometry" />
        </mxCell>
      </root>
    </mxGraphModel>
  </diagram>
</mxfile>
